<mxfile host="Electron" modified="2023-06-07T19:16:33.081Z" agent="Mozilla/5.0 (Windows NT 10.0; Win64; x64) AppleWebKit/537.36 (KHTML, like Gecko) draw.io/21.2.8 Chrome/112.0.5615.165 Electron/24.2.0 Safari/537.36" etag="gDqV7NkaGBp7bZo-z2w2" version="21.2.8" type="device">
  <diagram name="Página-1" id="xLVg2L0X4Ct3paUxGCsQ">
    <mxGraphModel dx="1434" dy="844" grid="1" gridSize="10" guides="1" tooltips="1" connect="1" arrows="1" fold="1" page="1" pageScale="1" pageWidth="1169" pageHeight="1654" math="0" shadow="0">
      <root>
        <mxCell id="0" />
        <mxCell id="1" parent="0" />
        <mxCell id="Gck_XRPhKSHQEE6iSiND-1" value="INICIO" style="ellipse;whiteSpace=wrap;html=1;" vertex="1" parent="1">
          <mxGeometry x="180" y="60" width="120" height="80" as="geometry" />
        </mxCell>
        <mxCell id="Gck_XRPhKSHQEE6iSiND-2" value="Selecionar Livro" style="rounded=1;whiteSpace=wrap;html=1;" vertex="1" parent="1">
          <mxGeometry x="185" y="170" width="120" height="60" as="geometry" />
        </mxCell>
        <mxCell id="Gck_XRPhKSHQEE6iSiND-3" value="Escolher motor do game" style="rounded=1;whiteSpace=wrap;html=1;" vertex="1" parent="1">
          <mxGeometry x="180" y="260" width="120" height="60" as="geometry" />
        </mxCell>
        <mxCell id="Gck_XRPhKSHQEE6iSiND-4" value="Definir estória" style="rounded=1;whiteSpace=wrap;html=1;" vertex="1" parent="1">
          <mxGeometry x="180" y="340" width="120" height="60" as="geometry" />
        </mxCell>
        <mxCell id="Gck_XRPhKSHQEE6iSiND-5" value="Tem tempo para apresentação&lt;br&gt;ou recursos?" style="rhombus;whiteSpace=wrap;html=1;" vertex="1" parent="1">
          <mxGeometry x="160" y="420" width="170" height="130" as="geometry" />
        </mxCell>
        <mxCell id="Gck_XRPhKSHQEE6iSiND-6" value="Progrmar a demo do jogo" style="rounded=1;whiteSpace=wrap;html=1;" vertex="1" parent="1">
          <mxGeometry x="400" y="455" width="130" height="60" as="geometry" />
        </mxCell>
        <mxCell id="Gck_XRPhKSHQEE6iSiND-7" value="Terminar o projeto" style="rounded=1;whiteSpace=wrap;html=1;" vertex="1" parent="1">
          <mxGeometry x="185" y="570" width="120" height="60" as="geometry" />
        </mxCell>
        <mxCell id="Gck_XRPhKSHQEE6iSiND-8" value="Apresentar projeto" style="rounded=1;whiteSpace=wrap;html=1;" vertex="1" parent="1">
          <mxGeometry x="180" y="660" width="120" height="60" as="geometry" />
        </mxCell>
        <mxCell id="Gck_XRPhKSHQEE6iSiND-9" value="Fim" style="ellipse;whiteSpace=wrap;html=1;" vertex="1" parent="1">
          <mxGeometry x="180" y="747" width="120" height="80" as="geometry" />
        </mxCell>
        <mxCell id="Gck_XRPhKSHQEE6iSiND-10" value="" style="endArrow=classic;html=1;rounded=0;exitX=1;exitY=0.5;exitDx=0;exitDy=0;entryX=0;entryY=0.5;entryDx=0;entryDy=0;" edge="1" parent="1" source="Gck_XRPhKSHQEE6iSiND-5" target="Gck_XRPhKSHQEE6iSiND-6">
          <mxGeometry width="50" height="50" relative="1" as="geometry">
            <mxPoint x="570" y="440" as="sourcePoint" />
            <mxPoint x="620" y="390" as="targetPoint" />
          </mxGeometry>
        </mxCell>
        <mxCell id="Gck_XRPhKSHQEE6iSiND-11" value="" style="endArrow=classic;html=1;rounded=0;exitX=0.5;exitY=1;exitDx=0;exitDy=0;entryX=1;entryY=0.5;entryDx=0;entryDy=0;" edge="1" parent="1" source="Gck_XRPhKSHQEE6iSiND-6" target="Gck_XRPhKSHQEE6iSiND-8">
          <mxGeometry width="50" height="50" relative="1" as="geometry">
            <mxPoint x="570" y="440" as="sourcePoint" />
            <mxPoint x="465" y="710" as="targetPoint" />
            <Array as="points">
              <mxPoint x="465" y="690" />
            </Array>
          </mxGeometry>
        </mxCell>
        <mxCell id="Gck_XRPhKSHQEE6iSiND-12" value="" style="endArrow=classic;html=1;rounded=0;entryX=0.433;entryY=0.033;entryDx=0;entryDy=0;entryPerimeter=0;" edge="1" parent="1" target="Gck_XRPhKSHQEE6iSiND-2">
          <mxGeometry width="50" height="50" relative="1" as="geometry">
            <mxPoint x="237" y="140" as="sourcePoint" />
            <mxPoint x="620" y="390" as="targetPoint" />
          </mxGeometry>
        </mxCell>
        <mxCell id="Gck_XRPhKSHQEE6iSiND-13" value="" style="endArrow=classic;html=1;rounded=0;exitX=0.5;exitY=1;exitDx=0;exitDy=0;" edge="1" parent="1" source="Gck_XRPhKSHQEE6iSiND-2" target="Gck_XRPhKSHQEE6iSiND-3">
          <mxGeometry width="50" height="50" relative="1" as="geometry">
            <mxPoint x="570" y="440" as="sourcePoint" />
            <mxPoint x="620" y="390" as="targetPoint" />
          </mxGeometry>
        </mxCell>
        <mxCell id="Gck_XRPhKSHQEE6iSiND-14" value="" style="endArrow=classic;html=1;rounded=0;exitX=0.5;exitY=1;exitDx=0;exitDy=0;entryX=0.5;entryY=0;entryDx=0;entryDy=0;" edge="1" parent="1" source="Gck_XRPhKSHQEE6iSiND-3" target="Gck_XRPhKSHQEE6iSiND-4">
          <mxGeometry width="50" height="50" relative="1" as="geometry">
            <mxPoint x="570" y="440" as="sourcePoint" />
            <mxPoint x="620" y="390" as="targetPoint" />
          </mxGeometry>
        </mxCell>
        <mxCell id="Gck_XRPhKSHQEE6iSiND-15" value="" style="endArrow=classic;html=1;rounded=0;exitX=0.5;exitY=1;exitDx=0;exitDy=0;entryX=0.5;entryY=0;entryDx=0;entryDy=0;" edge="1" parent="1" source="Gck_XRPhKSHQEE6iSiND-4" target="Gck_XRPhKSHQEE6iSiND-5">
          <mxGeometry width="50" height="50" relative="1" as="geometry">
            <mxPoint x="570" y="440" as="sourcePoint" />
            <mxPoint x="620" y="390" as="targetPoint" />
          </mxGeometry>
        </mxCell>
        <mxCell id="Gck_XRPhKSHQEE6iSiND-16" value="" style="endArrow=classic;html=1;rounded=0;exitX=0.5;exitY=1;exitDx=0;exitDy=0;entryX=0.5;entryY=0;entryDx=0;entryDy=0;" edge="1" parent="1" source="Gck_XRPhKSHQEE6iSiND-5" target="Gck_XRPhKSHQEE6iSiND-7">
          <mxGeometry width="50" height="50" relative="1" as="geometry">
            <mxPoint x="570" y="440" as="sourcePoint" />
            <mxPoint x="240" y="560" as="targetPoint" />
          </mxGeometry>
        </mxCell>
        <mxCell id="Gck_XRPhKSHQEE6iSiND-17" value="" style="endArrow=classic;html=1;rounded=0;exitX=0.433;exitY=1;exitDx=0;exitDy=0;entryX=0.5;entryY=0;entryDx=0;entryDy=0;exitPerimeter=0;" edge="1" parent="1" source="Gck_XRPhKSHQEE6iSiND-7" target="Gck_XRPhKSHQEE6iSiND-8">
          <mxGeometry width="50" height="50" relative="1" as="geometry">
            <mxPoint x="570" y="440" as="sourcePoint" />
            <mxPoint x="620" y="390" as="targetPoint" />
          </mxGeometry>
        </mxCell>
        <mxCell id="Gck_XRPhKSHQEE6iSiND-18" value="" style="endArrow=classic;html=1;rounded=0;exitX=0.5;exitY=1;exitDx=0;exitDy=0;entryX=0.5;entryY=0;entryDx=0;entryDy=0;" edge="1" parent="1" source="Gck_XRPhKSHQEE6iSiND-8" target="Gck_XRPhKSHQEE6iSiND-9">
          <mxGeometry width="50" height="50" relative="1" as="geometry">
            <mxPoint x="570" y="440" as="sourcePoint" />
            <mxPoint x="620" y="390" as="targetPoint" />
          </mxGeometry>
        </mxCell>
      </root>
    </mxGraphModel>
  </diagram>
</mxfile>
